<svg xmlns="http://www.w3.org/2000/svg" viewBox="0 0 500 500">
  <rect width="500" height="500" fill="#0e0e10"/>
  <g fill="#d4d4d8" transform="translate(20, 210) scale(0.335)">
    <polygon points="2,0 22,0 135.7,240 115.7,240"/>
    <polygon points="139.7,240 159.7,240 273.4,0 253.4,0"/>
    <polygon points="277.4,0 297.4,0 411.1,240 391.1,240"/>
    <polygon points="415.1,240 435.1,240 548.8,0 528.8,0"/>
    <polygon points="552.8,0 572.8,0 686.5,240 666.5,240"/>
    <polygon points="690.5,240 710.5,240 824.2,0 804.2,0"/>
    <polygon points="828.2,0 848.2,0 961.9,240 941.9,240"/>
    <polygon points="965.9,240 985.9,240 1099.6,0 1079.6,0"/>
    <polygon points="1103.6,0 1123.6,0 1237.3,240 1217.3,240"/>
    <polygon points="1241.3,240 1261.3,240 1375,0 1355,0"/>
  </g>
</svg>
