<svg xmlns="http://www.w3.org/2000/svg" viewBox="0 0 884 884">
  <rect width="884" height="884" fill="#0e0e10"/>
  <svg viewBox="-35.5 -2 603.8 244" x="5" y="265" width="874" height="354" fill="#6366f1">
    <polygon points="-31.50,0.00 31.50,0.00 91.50,240.00 28.50,240.00"/>
    <polygon points="28.50,240.00 91.50,240.00 139.50,48.00 76.50,48.00"/>
    <polygon points="76.50,48.00 139.50,48.00 187.50,240.00 124.50,240.00"/>
    <polygon points="124.50,240.00 187.50,240.00 247.50,0.00 184.50,0.00"/>
    <polygon points="184.50,0.00 247.50,0.00 297.90,201.60 234.90,201.60"/>
    <polygon points="234.90,201.60 297.90,201.60 348.30,0.00 285.30,0.00"/>
    <polygon points="285.30,0.00 348.30,0.00 408.30,240.00 345.30,240.00"/>
    <polygon points="345.30,240.00 408.30,240.00 456.30,48.00 393.30,48.00"/>
    <polygon points="393.30,48.00 456.30,48.00 504.30,240.00 441.30,240.00"/>
    <polygon points="441.30,240.00 504.30,240.00 564.30,0.00 501.30,0.00"/>
  </svg>
</svg>
