<svg xmlns="http://www.w3.org/2000/svg" viewBox="0 0 884 884">
  <rect width="884" height="884" fill="#0e0e10"/>
  <svg viewBox="-35.5 -2 603.8 244" x="5" y="265" width="874" height="354" fill="#d4d4d8">
    <polygon points="-31.5,0 31.5,0 91.5,240 28.5,240"/>
    <polygon points="28.5,240 91.5,240 139.5,48 76.5,48"/>
    <polygon points="76.5,48 139.5,48 187.5,240 124.5,240"/>
    <polygon points="124.5,240 187.5,240 247.5,0 184.5,0"/>
    <polygon points="184.5,0 247.5,0 297.9,201.6 234.9,201.6"/>
    <polygon points="234.9,201.6 297.9,201.6 348.3,0 285.3,0"/>
    <polygon points="285.3,0 348.3,0 408.3,240 345.3,240"/>
    <polygon points="345.3,240 408.3,240 456.3,48 393.3,48"/>
    <polygon points="393.3,48 456.3,48 504.3,240 441.3,240"/>
    <polygon points="441.3,240 504.3,240 564.3,0 501.3,0"/>
  </svg>
</svg>
