<svg xmlns="http://www.w3.org/2000/svg" viewBox="0 0 500 500">
  <rect width="500" height="500" fill="#0e0e10"/>
  <g fill="#d4d4d8" transform="translate(-1202, 50) scale(1.613)">
    <polygon points="-279.60,-4.00 -298.80,10.40 -123.60,244.00 -104.40,229.60"/>
    <polygon points="-54.00,229.60 -34.80,244.00 140.40,10.40 121.20,-4.00"/>
    <polygon points="210.00,-4.00 190.80,10.40 366.00,244.00 385.20,229.60"/>
    <polygon points="435.60,229.60 454.80,244.00 630.00,10.40 610.80,-4.00"/>
    <polygon points="699.60,-4.00 680.40,10.40 855.60,244.00 874.80,229.60"/>
    <polygon points="925.20,229.60 944.40,244.00 1119.60,10.40 1100.40,-4.00"/>
    <polygon points="1189.20,-4.00 1170.00,10.40 1345.20,244.00 1364.40,229.60"/>
    <polygon points="1414.80,229.60 1434.00,244.00 1609.20,10.40 1590.00,-4.00"/>
    <polygon points="1678.80,-4.00 1659.60,10.40 1834.80,244.00 1854.00,229.60"/>
    <polygon points="1904.40,229.60 1923.60,244.00 2098.80,10.40 2079.60,-4.00"/>
  </g>
</svg>
